<svg width="96" height="96" viewBox="0 0 96 96" fill="none" xmlns="http://www.w3.org/2000/svg">
<mask id="mask0_2_40" style="mask-type:alpha" maskUnits="userSpaceOnUse" x="0" y="0" width="96" height="96">
<path d="M7.99994 96C7.99994 96 -6.10352e-05 96 -6.10352e-05 88C-6.10352e-05 80 7.99994 56 47.9999 56C87.9999 56 95.9999 80 95.9999 88C95.9999 96 87.9999 96 87.9999 96H7.99994ZM47.9999 48C54.3651 48 60.4696 45.4714 64.9705 40.9706C69.4714 36.4697 71.9999 30.3652 71.9999 24C71.9999 17.6348 69.4714 11.5303 64.9705 7.02944C60.4696 2.52856 54.3651 0 47.9999 0C41.6347 0 35.5303 2.52856 31.0294 7.02944C26.5285 11.5303 23.9999 17.6348 23.9999 24C23.9999 30.3652 26.5285 36.4697 31.0294 40.9706C35.5303 45.4714 41.6347 48 47.9999 48Z" fill="#DADADA"/>
</mask>
<g mask="url(#mask0_2_40)">
<circle cx="47.9999" cy="36" r="60" fill="#DADADA"/>
</g>
</svg>
